# xmcd
#
# Track frame offsets:
#	150
#	13790
#	28127
#	44570
#	61864
#	75905
#	91525
#	108512
#	120842
#	140272
#	156310
#	168942
#	188525
#	202052
#	218702
#
# Disc length: 3164 seconds
#
# Revision: 2
# Processed by: cddbd v1.5.1PL2 Copyright (c) Steve Scherf et al.
# Submitted via: audiograbber 1.83.01
#
DISCID=b90c5a0f
DTITLE=Sound Choice - SC8217
DYEAR=1900
DGENRE=Karaoke Country
TTITLE0=Tippin, Aaron - I Was Born With A Broken Heart
TTITLE1=Loveless, Patty - Hurt Me Bad (In A Real Good Way)
TTITLE2=White, Bryan - Eugene (You Genius)
TTITLE3=Judds - Why Not Me
TTITLE4=Tucker, Tanya - It Won'T Be Me
TTITLE5=Judds - Mama He's Crazy
TTITLE6=Mcentire, Reba - Love Will Find It's Way To You 
TTITLE7=Van Shelton, Ricky - I'Ve Cried My Last Tear For You 
TTITLE8=Gill, Vince - When I Call Your Name
TTITLE9=Confederate Railroad - She Never Cried
TTITLE10=Carpenter, Mary Chapin - Right Now
TTITLE11=Little Texas - My Love
TTITLE12=Loveless, Patty - Blue Memories
TTITLE13=Rogers, Kenny - Vows Go Unbroken, The
TTITLE14=Tippin, Aaron - Whole Lotta Love On The Line
EXTD=
EXTT0=
EXTT1=
EXTT2=
EXTT3=
EXTT4=
EXTT5=
EXTT6=
EXTT7=
EXTT8=
EXTT9=
EXTT10=
EXTT11=
EXTT12=
EXTT13=
EXTT14=
PLAYORDER=
